<svg width="24" height="24" viewBox="0 0 24 24" fill="none" xmlns="http://www.w3.org/2000/svg">
<mask id="mask0_964_16637" style="mask-type:alpha" maskUnits="userSpaceOnUse" x="0" y="0" width="24" height="24">
<rect width="24" height="24" fill="#D9D9D9"/>
</mask>
<g mask="url(#mask0_964_16637)">
<path d="M14.7778 11.7222C15.1667 11.7222 15.4954 11.588 15.7639 11.3194C16.0324 11.0509 16.1667 10.7222 16.1667 10.3333C16.1667 9.94444 16.0324 9.61574 15.7639 9.34722C15.4954 9.0787 15.1667 8.94444 14.7778 8.94444C14.3889 8.94444 14.0602 9.0787 13.7917 9.34722C13.5231 9.61574 13.3889 9.94444 13.3889 10.3333C13.3889 10.7222 13.5231 11.0509 13.7917 11.3194C14.0602 11.588 14.3889 11.7222 14.7778 11.7222ZM9.22222 11.7222C9.61111 11.7222 9.93982 11.588 10.2083 11.3194C10.4769 11.0509 10.6111 10.7222 10.6111 10.3333C10.6111 9.94444 10.4769 9.61574 10.2083 9.34722C9.93982 9.0787 9.61111 8.94444 9.22222 8.94444C8.83333 8.94444 8.50463 9.0787 8.23611 9.34722C7.96759 9.61574 7.83333 9.94444 7.83333 10.3333C7.83333 10.7222 7.96759 11.0509 8.23611 11.3194C8.50463 11.588 8.83333 11.7222 9.22222 11.7222ZM12 17.5556C13.1111 17.5556 14.1157 17.25 15.0139 16.6389C15.912 16.0278 16.5741 15.2222 17 14.2222H7C7.42593 15.2222 8.08796 16.0278 8.98611 16.6389C9.88426 17.25 10.8889 17.5556 12 17.5556ZM12 22C10.6111 22 9.31019 21.7361 8.09722 21.2083C6.88426 20.6806 5.8287 19.9676 4.93056 19.0694C4.03241 18.1713 3.31944 17.1157 2.79167 15.9028C2.26389 14.6898 2 13.3889 2 12C2 10.6111 2.26389 9.31019 2.79167 8.09722C3.31944 6.88426 4.03241 5.8287 4.93056 4.93056C5.8287 4.03241 6.88426 3.31944 8.09722 2.79167C9.31019 2.26389 10.6111 2 12 2C13.3889 2 14.6898 2.26389 15.9028 2.79167C17.1157 3.31944 18.1713 4.03241 19.0694 4.93056C19.9676 5.8287 20.6806 6.88426 21.2083 8.09722C21.7361 9.31019 22 10.6111 22 12C22 13.3889 21.7361 14.6898 21.2083 15.9028C20.6806 17.1157 19.9676 18.1713 19.0694 19.0694C18.1713 19.9676 17.1157 20.6806 15.9028 21.2083C14.6898 21.7361 13.3889 22 12 22ZM12.4444 8.11111C12.7593 8.11111 13.1157 8.05093 13.5139 7.93056C13.912 7.81019 14.1111 7.53704 14.1111 7.11111C14.1111 6.88889 14.037 6.69444 13.8889 6.52778C13.7407 6.36111 13.5556 6.27778 13.3333 6.27778C13.1852 6.27778 13.0417 6.30556 12.9028 6.36111C12.7639 6.41667 12.6111 6.44444 12.4444 6.44444C12.0556 6.44444 11.7269 6.31019 11.4583 6.04167C11.1898 5.77315 11.0556 5.44444 11.0556 5.05556C11.0556 4.85185 11.088 4.68056 11.1528 4.54167C11.2176 4.40278 11.3148 4.30556 11.4444 4.25C11.0926 4.28704 10.75 4.33333 10.4167 4.38889C10.0833 4.44444 9.75926 4.53704 9.44445 4.66667C9.42593 4.72222 9.41204 4.78704 9.40278 4.86111C9.39352 4.93519 9.38889 5 9.38889 5.05556C9.38889 5.88889 9.68982 6.60648 10.2917 7.20833C10.8935 7.81019 11.6111 8.11111 12.4444 8.11111Z" fill="black"/>
</g>
</svg>
