<svg width="24" height="24" viewBox="0 0 24 24" fill="none" xmlns="http://www.w3.org/2000/svg">
<mask id="mask0_964_16646" style="mask-type:alpha" maskUnits="userSpaceOnUse" x="0" y="0" width="24" height="24">
<rect width="24" height="24" fill="#D9D9D9"/>
</mask>
<g mask="url(#mask0_964_16646)">
<path d="M2 2.5V12C2 13.5167 2.3 14.9167 2.9 16.2C3.5 17.4833 4.325 18.5833 5.375 19.5C4.94167 18.8667 4.60417 18.1708 4.3625 17.4125C4.12083 16.6542 4 15.85 4 15C4 13.7667 4.25417 12.4792 4.7625 11.1375C5.27083 9.79583 6.11667 8.24167 7.3 6.475L2 2.5ZM12 3.425C9.78333 6.09167 8.22917 8.3875 7.3375 10.3125C6.44583 12.2375 6 13.8 6 15C6 16.6667 6.58333 18.0833 7.75 19.25C8.91667 20.4167 10.3333 21 12 21C13.6667 21 15.0833 20.4167 16.25 19.25C17.4167 18.0833 18 16.6667 18 15C18 13.8 17.55 12.2292 16.65 10.2875C15.75 8.34583 14.2 6.05833 12 3.425ZM22 2.5L16.7 6.475C17.8833 8.24167 18.7292 9.79583 19.2375 11.1375C19.7458 12.4792 20 13.7667 20 15C20 15.85 19.8792 16.6542 19.6375 17.4125C19.3958 18.1708 19.0583 18.8667 18.625 19.5C19.675 18.5833 20.5 17.4833 21.1 16.2C21.7 14.9167 22 13.5167 22 12V2.5Z" fill="currentColor"/>
</g>
</svg>
